<mxfile host="app.diagrams.net" agent="Mozilla/5.0 (Windows NT 10.0; Win64; x64) AppleWebKit/537.36 (KHTML, like Gecko) Chrome/138.0.0.0 YaBrowser/25.8.0.0 Safari/537.36" version="28.2.7">
  <diagram name="Страница — 1" id="4IaXO6r4wP9D2voMoWig">
    <mxGraphModel dx="1682" dy="2121" grid="1" gridSize="10" guides="1" tooltips="1" connect="1" arrows="1" fold="1" page="1" pageScale="1" pageWidth="827" pageHeight="1169" math="0" shadow="0">
      <root>
        <mxCell id="0" />
        <mxCell id="1" parent="0" />
        <mxCell id="1wu607TMTR_I1NF3xz68-1" value="&lt;div&gt;&amp;lt;interface&amp;gt;&lt;/div&gt;Game" style="swimlane;fontStyle=1;align=center;verticalAlign=top;childLayout=stackLayout;horizontal=1;startSize=40;horizontalStack=0;resizeParent=1;resizeParentMax=0;resizeLast=0;collapsible=1;marginBottom=0;whiteSpace=wrap;html=1;" vertex="1" parent="1">
          <mxGeometry x="480" y="-30" width="250" height="90" as="geometry" />
        </mxCell>
        <mxCell id="1wu607TMTR_I1NF3xz68-4" value="+ startGame()&lt;div&gt;+ restartGame()&lt;/div&gt;&lt;div&gt;+ endGame()&lt;/div&gt;" style="text;strokeColor=none;fillColor=none;align=left;verticalAlign=top;spacingLeft=4;spacingRight=4;overflow=hidden;rotatable=0;points=[[0,0.5],[1,0.5]];portConstraint=eastwest;whiteSpace=wrap;html=1;" vertex="1" parent="1wu607TMTR_I1NF3xz68-1">
          <mxGeometry y="40" width="250" height="50" as="geometry" />
        </mxCell>
        <mxCell id="1wu607TMTR_I1NF3xz68-83" style="edgeStyle=orthogonalEdgeStyle;rounded=0;orthogonalLoop=1;jettySize=auto;html=1;entryX=0.5;entryY=0;entryDx=0;entryDy=0;endSize=18;endArrow=diamondThin;endFill=0;" edge="1" parent="1" source="1wu607TMTR_I1NF3xz68-5" target="1wu607TMTR_I1NF3xz68-63">
          <mxGeometry relative="1" as="geometry">
            <Array as="points">
              <mxPoint x="1045" y="380" />
              <mxPoint x="1080" y="380" />
            </Array>
          </mxGeometry>
        </mxCell>
        <mxCell id="1wu607TMTR_I1NF3xz68-84" style="edgeStyle=orthogonalEdgeStyle;rounded=0;orthogonalLoop=1;jettySize=auto;html=1;entryX=0.5;entryY=0;entryDx=0;entryDy=0;endArrow=diamondThin;endFill=1;endSize=18;" edge="1" parent="1" source="1wu607TMTR_I1NF3xz68-5" target="1wu607TMTR_I1NF3xz68-43">
          <mxGeometry relative="1" as="geometry" />
        </mxCell>
        <mxCell id="1wu607TMTR_I1NF3xz68-85" style="edgeStyle=orthogonalEdgeStyle;rounded=0;orthogonalLoop=1;jettySize=auto;html=1;endArrow=diamondThin;endFill=1;endSize=18;" edge="1" parent="1" source="1wu607TMTR_I1NF3xz68-5" target="1wu607TMTR_I1NF3xz68-9">
          <mxGeometry relative="1" as="geometry">
            <Array as="points">
              <mxPoint x="1210" y="-360" />
            </Array>
          </mxGeometry>
        </mxCell>
        <mxCell id="1wu607TMTR_I1NF3xz68-5" value="GameImpl" style="swimlane;fontStyle=1;align=center;verticalAlign=top;childLayout=stackLayout;horizontal=1;startSize=26;horizontalStack=0;resizeParent=1;resizeParentMax=0;resizeLast=0;collapsible=1;marginBottom=0;whiteSpace=wrap;html=1;" vertex="1" parent="1">
          <mxGeometry x="870" y="60" width="350" height="230" as="geometry" />
        </mxCell>
        <mxCell id="1wu607TMTR_I1NF3xz68-6" value="- gameBoard : GameBoard&lt;div&gt;- gameSettings : GameSettings&lt;br&gt;&lt;div&gt;- gameTimer : GameTimer&lt;/div&gt;&lt;div&gt;- player : Player&lt;/div&gt;&lt;div&gt;- gameOutput : GameOutput&lt;/div&gt;&lt;div&gt;- gameLogger : GameLogger&lt;/div&gt;&lt;div&gt;- inputHandler : InputHandler&lt;/div&gt;&lt;/div&gt;" style="text;strokeColor=none;fillColor=none;align=left;verticalAlign=top;spacingLeft=4;spacingRight=4;overflow=hidden;rotatable=0;points=[[0,0.5],[1,0.5]];portConstraint=eastwest;whiteSpace=wrap;html=1;" vertex="1" parent="1wu607TMTR_I1NF3xz68-5">
          <mxGeometry y="26" width="350" height="124" as="geometry" />
        </mxCell>
        <mxCell id="1wu607TMTR_I1NF3xz68-7" value="" style="line;strokeWidth=1;fillColor=none;align=left;verticalAlign=middle;spacingTop=-1;spacingLeft=3;spacingRight=3;rotatable=0;labelPosition=right;points=[];portConstraint=eastwest;strokeColor=inherit;" vertex="1" parent="1wu607TMTR_I1NF3xz68-5">
          <mxGeometry y="150" width="350" height="8" as="geometry" />
        </mxCell>
        <mxCell id="1wu607TMTR_I1NF3xz68-8" value="+ startGame()&lt;div&gt;+ restartGame()&lt;/div&gt;&lt;div&gt;+ endGame()&lt;/div&gt;&lt;div&gt;+ checkWin()&lt;/div&gt;" style="text;strokeColor=none;fillColor=none;align=left;verticalAlign=top;spacingLeft=4;spacingRight=4;overflow=hidden;rotatable=0;points=[[0,0.5],[1,0.5]];portConstraint=eastwest;whiteSpace=wrap;html=1;" vertex="1" parent="1wu607TMTR_I1NF3xz68-5">
          <mxGeometry y="158" width="350" height="72" as="geometry" />
        </mxCell>
        <mxCell id="1wu607TMTR_I1NF3xz68-9" value="GameSettings" style="swimlane;fontStyle=1;align=center;verticalAlign=top;childLayout=stackLayout;horizontal=1;startSize=26;horizontalStack=0;resizeParent=1;resizeParentMax=0;resizeLast=0;collapsible=1;marginBottom=0;whiteSpace=wrap;html=1;" vertex="1" parent="1">
          <mxGeometry x="1780" y="-420" width="230" height="250" as="geometry" />
        </mxCell>
        <mxCell id="1wu607TMTR_I1NF3xz68-10" value="- width : int&lt;div&gt;- height : int&lt;/div&gt;&lt;div&gt;- mineCount : int&lt;/div&gt;" style="text;strokeColor=none;fillColor=none;align=left;verticalAlign=top;spacingLeft=4;spacingRight=4;overflow=hidden;rotatable=0;points=[[0,0.5],[1,0.5]];portConstraint=eastwest;whiteSpace=wrap;html=1;" vertex="1" parent="1wu607TMTR_I1NF3xz68-9">
          <mxGeometry y="26" width="230" height="84" as="geometry" />
        </mxCell>
        <mxCell id="1wu607TMTR_I1NF3xz68-11" value="" style="line;strokeWidth=1;fillColor=none;align=left;verticalAlign=middle;spacingTop=-1;spacingLeft=3;spacingRight=3;rotatable=0;labelPosition=right;points=[];portConstraint=eastwest;strokeColor=inherit;" vertex="1" parent="1wu607TMTR_I1NF3xz68-9">
          <mxGeometry y="110" width="230" height="8" as="geometry" />
        </mxCell>
        <mxCell id="1wu607TMTR_I1NF3xz68-12" value="+ GameSettings(width:int, height:int, mineCount:int)&lt;div&gt;+ getWidth():int&lt;/div&gt;&lt;div&gt;+ setWidth(width:int)&lt;/div&gt;&lt;div&gt;+ getHeight():int&lt;/div&gt;&lt;div&gt;+ setHeight(height:int)&lt;/div&gt;&lt;div&gt;+ getMineCount():int&lt;/div&gt;&lt;div&gt;+ setMineCount(mineCount:int)&lt;/div&gt;" style="text;strokeColor=none;fillColor=none;align=left;verticalAlign=top;spacingLeft=4;spacingRight=4;overflow=hidden;rotatable=0;points=[[0,0.5],[1,0.5]];portConstraint=eastwest;whiteSpace=wrap;html=1;" vertex="1" parent="1wu607TMTR_I1NF3xz68-9">
          <mxGeometry y="118" width="230" height="132" as="geometry" />
        </mxCell>
        <mxCell id="1wu607TMTR_I1NF3xz68-86" style="edgeStyle=orthogonalEdgeStyle;rounded=0;orthogonalLoop=1;jettySize=auto;html=1;endArrow=diamondThin;endFill=1;endSize=18;" edge="1" parent="1" source="1wu607TMTR_I1NF3xz68-14" target="1wu607TMTR_I1NF3xz68-23">
          <mxGeometry relative="1" as="geometry" />
        </mxCell>
        <mxCell id="1wu607TMTR_I1NF3xz68-14" value="GameBoard" style="swimlane;fontStyle=1;align=center;verticalAlign=top;childLayout=stackLayout;horizontal=1;startSize=26;horizontalStack=0;resizeParent=1;resizeParentMax=0;resizeLast=0;collapsible=1;marginBottom=0;whiteSpace=wrap;html=1;" vertex="1" parent="1">
          <mxGeometry x="1720" y="-100" width="360" height="190" as="geometry" />
        </mxCell>
        <mxCell id="1wu607TMTR_I1NF3xz68-15" value="- gameBoard : Cell [][]&lt;div&gt;&lt;span style=&quot;background-color: transparent; color: light-dark(rgb(0, 0, 0), rgb(255, 255, 255));&quot;&gt;- gameSettings : GameSettings&amp;nbsp;&lt;/span&gt;&lt;/div&gt;" style="text;strokeColor=none;fillColor=none;align=left;verticalAlign=top;spacingLeft=4;spacingRight=4;overflow=hidden;rotatable=0;points=[[0,0.5],[1,0.5]];portConstraint=eastwest;whiteSpace=wrap;html=1;" vertex="1" parent="1wu607TMTR_I1NF3xz68-14">
          <mxGeometry y="26" width="360" height="44" as="geometry" />
        </mxCell>
        <mxCell id="1wu607TMTR_I1NF3xz68-16" value="" style="line;strokeWidth=1;fillColor=none;align=left;verticalAlign=middle;spacingTop=-1;spacingLeft=3;spacingRight=3;rotatable=0;labelPosition=right;points=[];portConstraint=eastwest;strokeColor=inherit;" vertex="1" parent="1wu607TMTR_I1NF3xz68-14">
          <mxGeometry y="70" width="360" height="8" as="geometry" />
        </mxCell>
        <mxCell id="1wu607TMTR_I1NF3xz68-17" value="+ GameBoard(gameBoard:Cell [][], gameSettings:GameSettings)&lt;div&gt;+ init()&lt;/div&gt;&lt;div&gt;+ revealCell()&lt;/div&gt;&lt;div&gt;+ toggleFlag()&lt;/div&gt;&lt;div&gt;+ isEmpty()&lt;/div&gt;&lt;div&gt;+ isMine()&lt;/div&gt;&lt;div&gt;+ getCell(x:int, y:int):Cell&lt;/div&gt;" style="text;strokeColor=none;fillColor=none;align=left;verticalAlign=top;spacingLeft=4;spacingRight=4;overflow=hidden;rotatable=0;points=[[0,0.5],[1,0.5]];portConstraint=eastwest;whiteSpace=wrap;html=1;" vertex="1" parent="1wu607TMTR_I1NF3xz68-14">
          <mxGeometry y="78" width="360" height="112" as="geometry" />
        </mxCell>
        <mxCell id="1wu607TMTR_I1NF3xz68-23" value="&lt;div&gt;Cell&lt;/div&gt;" style="swimlane;fontStyle=1;align=center;verticalAlign=top;childLayout=stackLayout;horizontal=1;startSize=30;horizontalStack=0;resizeParent=1;resizeParentMax=0;resizeLast=0;collapsible=1;marginBottom=0;whiteSpace=wrap;html=1;" vertex="1" parent="1">
          <mxGeometry x="1990" y="180" width="325" height="320" as="geometry" />
        </mxCell>
        <mxCell id="1wu607TMTR_I1NF3xz68-24" value="- x : int&lt;div&gt;- y : int&lt;/div&gt;&lt;div&gt;- isRevealed : boolean&lt;/div&gt;&lt;div&gt;- isFlagged : boolean&lt;/div&gt;&lt;div&gt;- state : CellState&lt;/div&gt;" style="text;strokeColor=none;fillColor=none;align=left;verticalAlign=top;spacingLeft=4;spacingRight=4;overflow=hidden;rotatable=0;points=[[0,0.5],[1,0.5]];portConstraint=eastwest;whiteSpace=wrap;html=1;" vertex="1" parent="1wu607TMTR_I1NF3xz68-23">
          <mxGeometry y="30" width="325" height="90" as="geometry" />
        </mxCell>
        <mxCell id="1wu607TMTR_I1NF3xz68-25" value="" style="line;strokeWidth=1;fillColor=none;align=left;verticalAlign=middle;spacingTop=-1;spacingLeft=3;spacingRight=3;rotatable=0;labelPosition=right;points=[];portConstraint=eastwest;strokeColor=inherit;" vertex="1" parent="1wu607TMTR_I1NF3xz68-23">
          <mxGeometry y="120" width="325" height="8" as="geometry" />
        </mxCell>
        <mxCell id="1wu607TMTR_I1NF3xz68-26" value="+ Cell (x:int, y:int)&lt;div&gt;+ getX():int&lt;/div&gt;&lt;div&gt;+ setX(x:int)&lt;/div&gt;&lt;div&gt;+ getY():int&lt;/div&gt;&lt;div&gt;+ setY(y:int)&lt;/div&gt;&lt;div&gt;+ getIsRevealed():boolean&lt;/div&gt;&lt;div&gt;+ setIsRevealed(isRevealed:boolean)&lt;/div&gt;&lt;div&gt;+ getIsFlagged():boolean&lt;/div&gt;&lt;div&gt;+ setIsFlagged(isFlagged:boolean)&lt;/div&gt;&lt;div&gt;+ getState():CellState&lt;/div&gt;&lt;div&gt;+ setState(state:CellState)&lt;/div&gt;&lt;div&gt;+ showState():String&lt;/div&gt;&lt;div&gt;&lt;br&gt;&lt;/div&gt;" style="text;strokeColor=none;fillColor=none;align=left;verticalAlign=top;spacingLeft=4;spacingRight=4;overflow=hidden;rotatable=0;points=[[0,0.5],[1,0.5]];portConstraint=eastwest;whiteSpace=wrap;html=1;" vertex="1" parent="1wu607TMTR_I1NF3xz68-23">
          <mxGeometry y="128" width="325" height="192" as="geometry" />
        </mxCell>
        <mxCell id="1wu607TMTR_I1NF3xz68-35" value="CellState" style="swimlane;fontStyle=0;childLayout=stackLayout;horizontal=1;startSize=26;fillColor=none;horizontalStack=0;resizeParent=1;resizeParentMax=0;resizeLast=0;collapsible=1;marginBottom=0;whiteSpace=wrap;html=1;" vertex="1" parent="1">
          <mxGeometry x="2090" y="540" width="140" height="160" as="geometry" />
        </mxCell>
        <mxCell id="1wu607TMTR_I1NF3xz68-36" value="MINE" style="text;strokeColor=none;fillColor=none;align=left;verticalAlign=top;spacingLeft=4;spacingRight=4;overflow=hidden;rotatable=0;points=[[0,0.5],[1,0.5]];portConstraint=eastwest;whiteSpace=wrap;html=1;" vertex="1" parent="1wu607TMTR_I1NF3xz68-35">
          <mxGeometry y="26" width="140" height="26" as="geometry" />
        </mxCell>
        <mxCell id="1wu607TMTR_I1NF3xz68-37" value="EMPTY" style="text;strokeColor=none;fillColor=none;align=left;verticalAlign=top;spacingLeft=4;spacingRight=4;overflow=hidden;rotatable=0;points=[[0,0.5],[1,0.5]];portConstraint=eastwest;whiteSpace=wrap;html=1;" vertex="1" parent="1wu607TMTR_I1NF3xz68-35">
          <mxGeometry y="52" width="140" height="26" as="geometry" />
        </mxCell>
        <mxCell id="1wu607TMTR_I1NF3xz68-38" value="NUMBER&lt;div&gt;&lt;br&gt;&lt;/div&gt;&lt;div&gt;CLOSED&lt;/div&gt;&lt;div&gt;&lt;br&gt;&lt;/div&gt;&lt;div&gt;FLAGGED&lt;/div&gt;" style="text;strokeColor=none;fillColor=none;align=left;verticalAlign=top;spacingLeft=4;spacingRight=4;overflow=hidden;rotatable=0;points=[[0,0.5],[1,0.5]];portConstraint=eastwest;whiteSpace=wrap;html=1;" vertex="1" parent="1wu607TMTR_I1NF3xz68-35">
          <mxGeometry y="78" width="140" height="82" as="geometry" />
        </mxCell>
        <mxCell id="1wu607TMTR_I1NF3xz68-39" value="Player" style="swimlane;fontStyle=1;align=center;verticalAlign=top;childLayout=stackLayout;horizontal=1;startSize=26;horizontalStack=0;resizeParent=1;resizeParentMax=0;resizeLast=0;collapsible=1;marginBottom=0;whiteSpace=wrap;html=1;" vertex="1" parent="1">
          <mxGeometry x="1610" y="280" width="350" height="140" as="geometry" />
        </mxCell>
        <mxCell id="1wu607TMTR_I1NF3xz68-40" value="- name : String" style="text;strokeColor=none;fillColor=none;align=left;verticalAlign=top;spacingLeft=4;spacingRight=4;overflow=hidden;rotatable=0;points=[[0,0.5],[1,0.5]];portConstraint=eastwest;whiteSpace=wrap;html=1;" vertex="1" parent="1wu607TMTR_I1NF3xz68-39">
          <mxGeometry y="26" width="350" height="34" as="geometry" />
        </mxCell>
        <mxCell id="1wu607TMTR_I1NF3xz68-41" value="" style="line;strokeWidth=1;fillColor=none;align=left;verticalAlign=middle;spacingTop=-1;spacingLeft=3;spacingRight=3;rotatable=0;labelPosition=right;points=[];portConstraint=eastwest;strokeColor=inherit;" vertex="1" parent="1wu607TMTR_I1NF3xz68-39">
          <mxGeometry y="60" width="350" height="8" as="geometry" />
        </mxCell>
        <mxCell id="1wu607TMTR_I1NF3xz68-42" value="+ Player (name:String, gamesPlayed:int, gamesWon:int, gamesLost:int)&lt;div&gt;+ getName():String&lt;/div&gt;&lt;div&gt;+ setName(name:String)&lt;/div&gt;" style="text;strokeColor=none;fillColor=none;align=left;verticalAlign=top;spacingLeft=4;spacingRight=4;overflow=hidden;rotatable=0;points=[[0,0.5],[1,0.5]];portConstraint=eastwest;whiteSpace=wrap;html=1;" vertex="1" parent="1wu607TMTR_I1NF3xz68-39">
          <mxGeometry y="68" width="350" height="72" as="geometry" />
        </mxCell>
        <mxCell id="1wu607TMTR_I1NF3xz68-43" value="GameTimer" style="swimlane;fontStyle=1;align=center;verticalAlign=top;childLayout=stackLayout;horizontal=1;startSize=26;horizontalStack=0;resizeParent=1;resizeParentMax=0;resizeLast=0;collapsible=1;marginBottom=0;whiteSpace=wrap;html=1;" vertex="1" parent="1">
          <mxGeometry x="680" y="435" width="280" height="210" as="geometry" />
        </mxCell>
        <mxCell id="1wu607TMTR_I1NF3xz68-44" value="- startTime : LocalDateTime&lt;div&gt;- endGame : LocalDateTime&lt;/div&gt;" style="text;strokeColor=none;fillColor=none;align=left;verticalAlign=top;spacingLeft=4;spacingRight=4;overflow=hidden;rotatable=0;points=[[0,0.5],[1,0.5]];portConstraint=eastwest;whiteSpace=wrap;html=1;" vertex="1" parent="1wu607TMTR_I1NF3xz68-43">
          <mxGeometry y="26" width="280" height="44" as="geometry" />
        </mxCell>
        <mxCell id="1wu607TMTR_I1NF3xz68-45" value="" style="line;strokeWidth=1;fillColor=none;align=left;verticalAlign=middle;spacingTop=-1;spacingLeft=3;spacingRight=3;rotatable=0;labelPosition=right;points=[];portConstraint=eastwest;strokeColor=inherit;" vertex="1" parent="1wu607TMTR_I1NF3xz68-43">
          <mxGeometry y="70" width="280" height="8" as="geometry" />
        </mxCell>
        <mxCell id="1wu607TMTR_I1NF3xz68-46" value="+ GameTimer()&lt;div&gt;+ getStartTime():LocalDateTime&lt;/div&gt;&lt;div&gt;+ setStartTime(startTime:LocalDateTime)&lt;/div&gt;&lt;div&gt;+ getEndTime():LocalDateTIme&lt;/div&gt;&lt;div&gt;+ setEndTime(endTime:LocalDateTime)&lt;/div&gt;&lt;div&gt;+ start()&lt;/div&gt;&lt;div&gt;+ stop()&lt;/div&gt;&lt;div&gt;+ reset()&lt;/div&gt;" style="text;strokeColor=none;fillColor=none;align=left;verticalAlign=top;spacingLeft=4;spacingRight=4;overflow=hidden;rotatable=0;points=[[0,0.5],[1,0.5]];portConstraint=eastwest;whiteSpace=wrap;html=1;" vertex="1" parent="1wu607TMTR_I1NF3xz68-43">
          <mxGeometry y="78" width="280" height="132" as="geometry" />
        </mxCell>
        <mxCell id="1wu607TMTR_I1NF3xz68-95" style="edgeStyle=orthogonalEdgeStyle;rounded=0;orthogonalLoop=1;jettySize=auto;html=1;endArrow=block;endFill=0;endSize=18;" edge="1" parent="1" source="1wu607TMTR_I1NF3xz68-51" target="1wu607TMTR_I1NF3xz68-47">
          <mxGeometry relative="1" as="geometry" />
        </mxCell>
        <mxCell id="1wu607TMTR_I1NF3xz68-51" value="&lt;div&gt;GameConsoleOutputImpl&lt;/div&gt;" style="swimlane;fontStyle=1;align=center;verticalAlign=top;childLayout=stackLayout;horizontal=1;startSize=30;horizontalStack=0;resizeParent=1;resizeParentMax=0;resizeLast=0;collapsible=1;marginBottom=0;whiteSpace=wrap;html=1;" vertex="1" parent="1">
          <mxGeometry x="855" y="-380" width="270" height="90" as="geometry" />
        </mxCell>
        <mxCell id="1wu607TMTR_I1NF3xz68-52" value="" style="line;strokeWidth=1;fillColor=none;align=left;verticalAlign=middle;spacingTop=-1;spacingLeft=3;spacingRight=3;rotatable=0;labelPosition=right;points=[];portConstraint=eastwest;strokeColor=inherit;" vertex="1" parent="1wu607TMTR_I1NF3xz68-51">
          <mxGeometry y="30" width="270" height="8" as="geometry" />
        </mxCell>
        <mxCell id="1wu607TMTR_I1NF3xz68-53" value="+ render(board : Board, timer : GameTimer)&lt;div&gt;+ showMessage(String message)&lt;/div&gt;" style="text;strokeColor=none;fillColor=none;align=left;verticalAlign=top;spacingLeft=4;spacingRight=4;overflow=hidden;rotatable=0;points=[[0,0.5],[1,0.5]];portConstraint=eastwest;whiteSpace=wrap;html=1;" vertex="1" parent="1wu607TMTR_I1NF3xz68-51">
          <mxGeometry y="38" width="270" height="52" as="geometry" />
        </mxCell>
        <mxCell id="1wu607TMTR_I1NF3xz68-54" value="&amp;lt;interface&amp;gt;&lt;div&gt;InputHandler&lt;/div&gt;" style="swimlane;fontStyle=1;align=center;verticalAlign=top;childLayout=stackLayout;horizontal=1;startSize=40;horizontalStack=0;resizeParent=1;resizeParentMax=0;resizeLast=0;collapsible=1;marginBottom=0;whiteSpace=wrap;html=1;" vertex="1" parent="1">
          <mxGeometry x="1270" y="-160" width="100" height="130" as="geometry" />
        </mxCell>
        <mxCell id="1wu607TMTR_I1NF3xz68-56" value="" style="line;strokeWidth=1;fillColor=none;align=left;verticalAlign=middle;spacingTop=-1;spacingLeft=3;spacingRight=3;rotatable=0;labelPosition=right;points=[];portConstraint=eastwest;strokeColor=inherit;" vertex="1" parent="1wu607TMTR_I1NF3xz68-54">
          <mxGeometry y="40" width="100" height="8" as="geometry" />
        </mxCell>
        <mxCell id="1wu607TMTR_I1NF3xz68-57" value="+ getX()&lt;div&gt;+ getY()&lt;/div&gt;&lt;div&gt;+ getInput()&lt;/div&gt;&lt;div&gt;+ setFlag()&lt;/div&gt;" style="text;strokeColor=none;fillColor=none;align=left;verticalAlign=top;spacingLeft=4;spacingRight=4;overflow=hidden;rotatable=0;points=[[0,0.5],[1,0.5]];portConstraint=eastwest;whiteSpace=wrap;html=1;" vertex="1" parent="1wu607TMTR_I1NF3xz68-54">
          <mxGeometry y="48" width="100" height="82" as="geometry" />
        </mxCell>
        <mxCell id="1wu607TMTR_I1NF3xz68-58" value="InputHandlerImpl" style="swimlane;fontStyle=1;align=center;verticalAlign=top;childLayout=stackLayout;horizontal=1;startSize=26;horizontalStack=0;resizeParent=1;resizeParentMax=0;resizeLast=0;collapsible=1;marginBottom=0;whiteSpace=wrap;html=1;" vertex="1" parent="1">
          <mxGeometry x="1470" y="-260" width="160" height="120" as="geometry" />
        </mxCell>
        <mxCell id="1wu607TMTR_I1NF3xz68-60" value="" style="line;strokeWidth=1;fillColor=none;align=left;verticalAlign=middle;spacingTop=-1;spacingLeft=3;spacingRight=3;rotatable=0;labelPosition=right;points=[];portConstraint=eastwest;strokeColor=inherit;" vertex="1" parent="1wu607TMTR_I1NF3xz68-58">
          <mxGeometry y="26" width="160" height="8" as="geometry" />
        </mxCell>
        <mxCell id="1wu607TMTR_I1NF3xz68-61" value="+ getX():int&lt;div&gt;+ getY():int&lt;/div&gt;&lt;div&gt;+ getInput():int&lt;/div&gt;&lt;div&gt;+ setFlag()&lt;/div&gt;" style="text;strokeColor=none;fillColor=none;align=left;verticalAlign=top;spacingLeft=4;spacingRight=4;overflow=hidden;rotatable=0;points=[[0,0.5],[1,0.5]];portConstraint=eastwest;whiteSpace=wrap;html=1;" vertex="1" parent="1wu607TMTR_I1NF3xz68-58">
          <mxGeometry y="34" width="160" height="86" as="geometry" />
        </mxCell>
        <mxCell id="1wu607TMTR_I1NF3xz68-87" style="edgeStyle=orthogonalEdgeStyle;rounded=0;orthogonalLoop=1;jettySize=auto;html=1;entryX=0;entryY=0.5;entryDx=0;entryDy=0;endArrow=diamondThin;endFill=1;endSize=18;" edge="1" parent="1" source="1wu607TMTR_I1NF3xz68-63" target="1wu607TMTR_I1NF3xz68-70">
          <mxGeometry relative="1" as="geometry" />
        </mxCell>
        <mxCell id="1wu607TMTR_I1NF3xz68-63" value="GameLogger" style="swimlane;fontStyle=1;align=center;verticalAlign=top;childLayout=stackLayout;horizontal=1;startSize=26;horizontalStack=0;resizeParent=1;resizeParentMax=0;resizeLast=0;collapsible=1;marginBottom=0;whiteSpace=wrap;html=1;" vertex="1" parent="1">
          <mxGeometry x="1000" y="430" width="160" height="150" as="geometry" />
        </mxCell>
        <mxCell id="1wu607TMTR_I1NF3xz68-64" value="- logs : List&amp;lt;GameResult&amp;gt;" style="text;strokeColor=none;fillColor=none;align=left;verticalAlign=top;spacingLeft=4;spacingRight=4;overflow=hidden;rotatable=0;points=[[0,0.5],[1,0.5]];portConstraint=eastwest;whiteSpace=wrap;html=1;" vertex="1" parent="1wu607TMTR_I1NF3xz68-63">
          <mxGeometry y="26" width="160" height="34" as="geometry" />
        </mxCell>
        <mxCell id="1wu607TMTR_I1NF3xz68-65" value="" style="line;strokeWidth=1;fillColor=none;align=left;verticalAlign=middle;spacingTop=-1;spacingLeft=3;spacingRight=3;rotatable=0;labelPosition=right;points=[];portConstraint=eastwest;strokeColor=inherit;" vertex="1" parent="1wu607TMTR_I1NF3xz68-63">
          <mxGeometry y="60" width="160" height="8" as="geometry" />
        </mxCell>
        <mxCell id="1wu607TMTR_I1NF3xz68-66" value="+ GameLogger()&lt;div&gt;+ log(result:GameResult)&lt;/div&gt;&lt;div&gt;+ printHistory()&lt;/div&gt;&lt;div&gt;+ printAverageTime()&lt;/div&gt;&lt;div&gt;+ getBestTime()&lt;/div&gt;" style="text;strokeColor=none;fillColor=none;align=left;verticalAlign=top;spacingLeft=4;spacingRight=4;overflow=hidden;rotatable=0;points=[[0,0.5],[1,0.5]];portConstraint=eastwest;whiteSpace=wrap;html=1;" vertex="1" parent="1wu607TMTR_I1NF3xz68-63">
          <mxGeometry y="68" width="160" height="82" as="geometry" />
        </mxCell>
        <mxCell id="1wu607TMTR_I1NF3xz68-67" value="GameResult" style="swimlane;fontStyle=1;align=center;verticalAlign=top;childLayout=stackLayout;horizontal=1;startSize=26;horizontalStack=0;resizeParent=1;resizeParentMax=0;resizeLast=0;collapsible=1;marginBottom=0;whiteSpace=wrap;html=1;" vertex="1" parent="1">
          <mxGeometry x="1260" y="290" width="300" height="220" as="geometry" />
        </mxCell>
        <mxCell id="1wu607TMTR_I1NF3xz68-68" value="- player : Player&lt;div&gt;- gameDuration : String&lt;/div&gt;&lt;div&gt;- isWin : boolean&lt;/div&gt;" style="text;strokeColor=none;fillColor=none;align=left;verticalAlign=top;spacingLeft=4;spacingRight=4;overflow=hidden;rotatable=0;points=[[0,0.5],[1,0.5]];portConstraint=eastwest;whiteSpace=wrap;html=1;" vertex="1" parent="1wu607TMTR_I1NF3xz68-67">
          <mxGeometry y="26" width="300" height="54" as="geometry" />
        </mxCell>
        <mxCell id="1wu607TMTR_I1NF3xz68-69" value="" style="line;strokeWidth=1;fillColor=none;align=left;verticalAlign=middle;spacingTop=-1;spacingLeft=3;spacingRight=3;rotatable=0;labelPosition=right;points=[];portConstraint=eastwest;strokeColor=inherit;" vertex="1" parent="1wu607TMTR_I1NF3xz68-67">
          <mxGeometry y="80" width="300" height="8" as="geometry" />
        </mxCell>
        <mxCell id="1wu607TMTR_I1NF3xz68-70" value="+ GameResult(player:Player, gameDuration:String, isWin:boolean)&lt;div&gt;+ getPlayer():Player&lt;/div&gt;&lt;div&gt;+ setPlayer(player:Player)&lt;/div&gt;&lt;div&gt;+ getGameDuration():String&lt;/div&gt;&lt;div&gt;+ setGameDuration(gameDuration:String)&lt;/div&gt;&lt;div&gt;+ getIsWin():boolean&lt;/div&gt;&lt;div&gt;+ setIsWin(isWin:boolean)&lt;/div&gt;&lt;div&gt;&lt;br&gt;&lt;/div&gt;" style="text;strokeColor=none;fillColor=none;align=left;verticalAlign=top;spacingLeft=4;spacingRight=4;overflow=hidden;rotatable=0;points=[[0,0.5],[1,0.5]];portConstraint=eastwest;whiteSpace=wrap;html=1;" vertex="1" parent="1wu607TMTR_I1NF3xz68-67">
          <mxGeometry y="88" width="300" height="132" as="geometry" />
        </mxCell>
        <mxCell id="1wu607TMTR_I1NF3xz68-79" style="edgeStyle=orthogonalEdgeStyle;rounded=0;orthogonalLoop=1;jettySize=auto;html=1;entryX=1;entryY=0.5;entryDx=0;entryDy=0;endArrow=block;endFill=0;endSize=13;" edge="1" parent="1" source="1wu607TMTR_I1NF3xz68-6" target="1wu607TMTR_I1NF3xz68-4">
          <mxGeometry relative="1" as="geometry" />
        </mxCell>
        <mxCell id="1wu607TMTR_I1NF3xz68-80" style="edgeStyle=orthogonalEdgeStyle;rounded=0;orthogonalLoop=1;jettySize=auto;html=1;endArrow=diamondThin;endFill=1;jumpSize=14;endSize=18;entryX=0.5;entryY=0;entryDx=0;entryDy=0;" edge="1" parent="1" source="1wu607TMTR_I1NF3xz68-6" target="1wu607TMTR_I1NF3xz68-67">
          <mxGeometry relative="1" as="geometry" />
        </mxCell>
        <mxCell id="1wu607TMTR_I1NF3xz68-81" style="edgeStyle=orthogonalEdgeStyle;rounded=0;orthogonalLoop=1;jettySize=auto;html=1;entryX=0;entryY=0.5;entryDx=0;entryDy=0;endArrow=diamondThin;endFill=1;endSize=18;" edge="1" parent="1" source="1wu607TMTR_I1NF3xz68-6" target="1wu607TMTR_I1NF3xz68-15">
          <mxGeometry relative="1" as="geometry" />
        </mxCell>
        <mxCell id="1wu607TMTR_I1NF3xz68-82" style="edgeStyle=orthogonalEdgeStyle;rounded=0;orthogonalLoop=1;jettySize=auto;html=1;entryX=0.5;entryY=0;entryDx=0;entryDy=0;endArrow=diamondThin;endFill=0;endSize=18;" edge="1" parent="1" source="1wu607TMTR_I1NF3xz68-6" target="1wu607TMTR_I1NF3xz68-39">
          <mxGeometry relative="1" as="geometry" />
        </mxCell>
        <mxCell id="1wu607TMTR_I1NF3xz68-88" style="edgeStyle=orthogonalEdgeStyle;rounded=0;orthogonalLoop=1;jettySize=auto;html=1;entryX=0;entryY=0.5;entryDx=0;entryDy=0;endArrow=diamondThin;endFill=0;endSize=18;" edge="1" parent="1" source="1wu607TMTR_I1NF3xz68-70" target="1wu607TMTR_I1NF3xz68-40">
          <mxGeometry relative="1" as="geometry" />
        </mxCell>
        <mxCell id="1wu607TMTR_I1NF3xz68-89" style="edgeStyle=orthogonalEdgeStyle;rounded=0;orthogonalLoop=1;jettySize=auto;html=1;entryX=0.521;entryY=1.003;entryDx=0;entryDy=0;entryPerimeter=0;endArrow=none;endFill=0;" edge="1" parent="1" source="1wu607TMTR_I1NF3xz68-35" target="1wu607TMTR_I1NF3xz68-26">
          <mxGeometry relative="1" as="geometry" />
        </mxCell>
        <mxCell id="1wu607TMTR_I1NF3xz68-90" style="edgeStyle=orthogonalEdgeStyle;rounded=0;orthogonalLoop=1;jettySize=auto;html=1;entryX=0.5;entryY=1;entryDx=0;entryDy=0;entryPerimeter=0;endArrow=diamondThin;endFill=0;endSize=18;" edge="1" parent="1" source="1wu607TMTR_I1NF3xz68-5" target="1wu607TMTR_I1NF3xz68-57">
          <mxGeometry relative="1" as="geometry">
            <Array as="points">
              <mxPoint x="1320" y="90" />
            </Array>
          </mxGeometry>
        </mxCell>
        <mxCell id="1wu607TMTR_I1NF3xz68-93" style="edgeStyle=orthogonalEdgeStyle;rounded=0;orthogonalLoop=1;jettySize=auto;html=1;entryX=0.5;entryY=0;entryDx=0;entryDy=0;endSize=18;endArrow=block;endFill=0;" edge="1" parent="1" source="1wu607TMTR_I1NF3xz68-61" target="1wu607TMTR_I1NF3xz68-54">
          <mxGeometry relative="1" as="geometry">
            <Array as="points">
              <mxPoint x="1320" y="-190" />
            </Array>
          </mxGeometry>
        </mxCell>
        <mxCell id="1wu607TMTR_I1NF3xz68-47" value="&amp;lt;interface&amp;gt;&lt;div&gt;GameOutput&lt;/div&gt;" style="swimlane;fontStyle=1;align=center;verticalAlign=top;childLayout=stackLayout;horizontal=1;startSize=40;horizontalStack=0;resizeParent=1;resizeParentMax=0;resizeLast=0;collapsible=1;marginBottom=0;whiteSpace=wrap;html=1;" vertex="1" parent="1">
          <mxGeometry x="840" y="-200" width="300" height="100" as="geometry" />
        </mxCell>
        <mxCell id="1wu607TMTR_I1NF3xz68-49" value="" style="line;strokeWidth=1;fillColor=none;align=left;verticalAlign=middle;spacingTop=-1;spacingLeft=3;spacingRight=3;rotatable=0;labelPosition=right;points=[];portConstraint=eastwest;strokeColor=inherit;" vertex="1" parent="1wu607TMTR_I1NF3xz68-47">
          <mxGeometry y="40" width="300" height="8" as="geometry" />
        </mxCell>
        <mxCell id="1wu607TMTR_I1NF3xz68-50" value="+ render()&lt;div&gt;+ showMessage()&lt;/div&gt;" style="text;strokeColor=none;fillColor=none;align=left;verticalAlign=top;spacingLeft=4;spacingRight=4;overflow=hidden;rotatable=0;points=[[0,0.5],[1,0.5]];portConstraint=eastwest;whiteSpace=wrap;html=1;" vertex="1" parent="1wu607TMTR_I1NF3xz68-47">
          <mxGeometry y="48" width="300" height="52" as="geometry" />
        </mxCell>
        <mxCell id="1wu607TMTR_I1NF3xz68-94" style="edgeStyle=orthogonalEdgeStyle;rounded=0;orthogonalLoop=1;jettySize=auto;html=1;entryX=0.49;entryY=1.019;entryDx=0;entryDy=0;entryPerimeter=0;endSize=18;endArrow=diamondThin;endFill=1;" edge="1" parent="1" source="1wu607TMTR_I1NF3xz68-5" target="1wu607TMTR_I1NF3xz68-50">
          <mxGeometry relative="1" as="geometry" />
        </mxCell>
        <mxCell id="1wu607TMTR_I1NF3xz68-98" style="edgeStyle=orthogonalEdgeStyle;rounded=0;orthogonalLoop=1;jettySize=auto;html=1;entryX=0.521;entryY=1.004;entryDx=0;entryDy=0;entryPerimeter=0;endSize=18;endArrow=diamondThin;endFill=1;" edge="1" parent="1" source="1wu607TMTR_I1NF3xz68-14" target="1wu607TMTR_I1NF3xz68-12">
          <mxGeometry relative="1" as="geometry" />
        </mxCell>
      </root>
    </mxGraphModel>
  </diagram>
</mxfile>
